<svg width="80" height="80" viewBox="0 0 80 80" fill="none" xmlns="http://www.w3.org/2000/svg">
<mask id="mask0_459_23512" style="mask-type:alpha" maskUnits="userSpaceOnUse" x="0" y="0" width="80" height="80">
<rect width="80" height="80" fill="#fff"/>
</mask>
<g mask="url(#mask0_459_23512)">
<path d="M16.6667 70C14.8333 70 13.2633 69.3478 11.9567 68.0433C10.6522 66.7367 10 65.1667 10 63.3333V16.6667C10 14.8333 10.6522 13.2633 11.9567 11.9567C13.2633 10.6522 14.8333 10 16.6667 10H63.3333C65.1667 10 66.7367 10.6522 68.0433 11.9567C69.3478 13.2633 70 14.8333 70 16.6667V63.3333C70 65.1667 69.3478 66.7367 68.0433 68.0433C66.7367 69.3478 65.1667 70 63.3333 70H16.6667ZM16.6667 63.3333H63.3333V16.6667H16.6667V63.3333Z" fill="#FFF8E1"/>
<path d="M26.8688 45.0346L23.3333 41.4991L36.2969 28.5355L43.368 35.6065L53.9746 25L57.5101 28.5355L43.368 42.6777L36.2968 35.6066L26.8688 45.0346Z" fill="#FFF8E1"/>
<path d="M27.4581 56.2304L23.9226 52.695L36.8862 39.7313L43.9573 46.8023L54.5639 36.1958L58.0995 39.7313L43.9573 53.8735L36.8862 46.8024L27.4581 56.2304Z" fill="#FFF8E1"/>
</g>
</svg>
