<svg width="80" height="80" viewBox="0 0 80 80" fill="none" xmlns="http://www.w3.org/2000/svg">
<mask id="mask0_461_14754" style="mask-type:alpha" maskUnits="userSpaceOnUse" x="0" y="0" width="80" height="80">
<rect width="80" height="80" fill="#fff"/>
</mask>
<g mask="url(#mask0_461_14754)">
<path d="M16.6667 70C14.8333 70 13.2633 69.3478 11.9567 68.0433C10.6522 66.7367 10 65.1667 10 63.3333V16.6667C10 14.8333 10.6522 13.2633 11.9567 11.9567C13.2633 10.6522 14.8333 10 16.6667 10H63.3333C65.1667 10 66.7367 10.6522 68.0433 11.9567C69.3478 13.2633 70 14.8333 70 16.6667V63.3333C70 65.1667 69.3478 66.7367 68.0433 68.0433C66.7367 69.3478 65.1667 70 63.3333 70H16.6667ZM16.6667 63.3333H63.3333V16.6667H16.6667V63.3333Z" fill="#FFF8E1"/>
<path d="M28.4996 53.3312C27.9163 53.3312 27.3608 53.1923 26.8331 52.9146C26.3053 52.6368 25.8887 52.2479 25.5832 51.748C24.861 50.4981 24.3055 49.1721 23.9167 47.77C23.5278 46.3668 23.3334 44.8875 23.3334 43.332C23.3334 41.0267 23.7711 38.8668 24.6466 36.8526C25.521 34.8394 26.7153 33.0757 28.2296 31.5613C29.7428 30.0481 31.5132 28.8538 33.5409 27.9783C35.5685 27.1039 37.7211 26.6667 39.9987 26.6667C41.6374 26.6667 43.2139 26.8956 44.7283 27.3534C46.2415 27.8122 47.6647 28.4999 48.9979 29.4165L45.8315 31.4164C44.9149 30.9442 43.9639 30.5903 42.9784 30.3548C41.9918 30.1181 40.9986 29.9998 39.9987 29.9998C36.3045 29.9998 33.1592 31.298 30.5628 33.8945C27.9652 36.492 26.6664 39.6379 26.6664 43.332C26.6664 44.4986 26.8259 45.6513 27.1447 46.7901C27.4647 47.9289 27.9163 48.9982 28.4996 49.9981H51.4977C52.1365 48.9427 52.602 47.8455 52.8942 46.7067C53.1853 45.5679 53.3309 44.3875 53.3309 43.1654C53.3309 42.1655 53.2131 41.1933 52.9776 40.2489C52.7409 39.3046 52.3865 38.388 51.9143 37.4992L53.9142 34.3328C54.7474 35.6382 55.4074 37.027 55.894 38.4991C56.3795 39.9712 56.6362 41.4988 56.6639 43.082C56.6917 44.6652 56.5112 46.179 56.1223 47.6233C55.7335 49.0677 55.1641 50.4425 54.4141 51.748C54.1086 52.2479 53.692 52.6368 53.1642 52.9146C52.6365 53.1923 52.081 53.3312 51.4977 53.3312H28.4996Z" fill="#FFF8E1"/>
<path d="M39.9986 46.81C38.9431 46.8244 38.0821 46.4984 37.4155 45.8317C36.7488 45.1651 36.4367 44.318 36.4789 43.2903C36.52 42.2626 36.9155 41.4988 37.6654 40.9988L51.6643 31.6663L42.3317 45.6651C41.8318 46.415 41.054 46.7967 39.9986 46.81Z" fill="#FFF8E1"/>
</g>
</svg>
