<svg width="20" height="20" viewBox="0 0 20 20" fill="none" xmlns="http://www.w3.org/2000/svg">
<path d="M9.99992 4.97933C13.1583 4.97933 15.9749 6.75433 17.3499 9.56266C16.8582 10.5793 16.1666 11.4543 15.3416 12.1627L16.5166 13.3377C17.6749 12.3127 18.5916 11.0293 19.1666 9.56266C17.7249 5.90433 14.1666 3.31266 9.99992 3.31266C8.94158 3.31266 7.92492 3.47933 6.96658 3.78766L8.34158 5.16266C8.88325 5.05433 9.43325 4.97933 9.99992 4.97933ZM9.10825 5.92933L10.8333 7.65433C11.3083 7.86266 11.6916 8.246 11.8999 8.721L13.6249 10.446C13.6916 10.1627 13.7416 9.86266 13.7416 9.55433C13.7499 7.48766 12.0666 5.81266 9.99992 5.81266C9.69158 5.81266 9.39992 5.85433 9.10825 5.92933ZM1.67492 3.20433L3.90825 5.43766C2.54992 6.50433 1.47492 7.921 0.833252 9.56266C2.27492 13.221 5.83325 15.8127 9.99992 15.8127C11.2666 15.8127 12.4833 15.571 13.5999 15.1293L16.4499 17.9793L17.6249 16.8043L2.84992 2.021L1.67492 3.20433ZM7.92492 9.45433L10.0999 11.6293C10.0666 11.6377 10.0333 11.646 9.99992 11.646C8.84992 11.646 7.91658 10.7127 7.91658 9.56266C7.91658 9.521 7.92492 9.496 7.92492 9.45433ZM5.09159 6.621L6.54992 8.07933C6.35825 8.53766 6.24992 9.03766 6.24992 9.56266C6.24992 11.6293 7.93325 13.3127 9.99992 13.3127C10.5249 13.3127 11.0249 13.2043 11.4749 13.0127L12.2916 13.8293C11.5583 14.0293 10.7916 14.146 9.99992 14.146C6.84158 14.146 4.02492 12.371 2.64992 9.56266C3.23325 8.371 4.08325 7.38766 5.09159 6.621Z" fill="#78909C"/>
</svg>
