<svg width="80" height="80" viewBox="0 0 80 80" fill="none" xmlns="http://www.w3.org/2000/svg">
<mask id="mask0_461_14654" style="mask-type:alpha" maskUnits="userSpaceOnUse" x="0" y="0" width="80" height="80">
<rect width="80" height="80" fill="#fff"/>
</mask>
<g mask="url(#mask0_461_14654)">
<path d="M16.6667 70C14.8333 70 13.2633 69.3478 11.9567 68.0433C10.6522 66.7367 10 65.1667 10 63.3333V16.6667C10 14.8333 10.6522 13.2633 11.9567 11.9567C13.2633 10.6522 14.8333 10 16.6667 10H63.3333C65.1667 10 66.7367 10.6522 68.0433 11.9567C69.3478 13.2633 70 14.8333 70 16.6667V63.3333C70 65.1667 69.3478 66.7367 68.0433 68.0433C66.7367 69.3478 65.1667 70 63.3333 70H16.6667ZM16.6667 63.3333H63.3333V16.6667H16.6667V63.3333Z" fill="#FFF8E1"/>
<path d="M29.9999 56.6666H23.3333V39.9999H29.9999V56.6666Z" fill="#FFF8E1"/>
<path d="M56.6666 56.6666H49.9999V23.3333H56.6666V56.6666Z" fill="#FFF8E1"/>
<path d="M43.3333 56.6666H36.6666V46.6666H43.3333V56.6666Z" fill="#FFF8E1"/>
<path d="M43.3334 39.9999H36.6667V33.3333H43.3334V39.9999Z" fill="#FFF8E1"/>
</g>
</svg>
