<svg width="32" height="32" viewBox="0 0 32 32" fill="none" xmlns="http://www.w3.org/2000/svg">
<mask id="path-1-inside-1_353_9786" fill="white">
<path fill-rule="evenodd" clip-rule="evenodd" d="M26.624 7.03144C26.5151 7.06419 26.3534 7.17732 26.2646 7.28282C26.0817 7.50013 26.0617 7.72576 26.1762 8.28001C26.2396 8.58663 26.2344 8.67032 26.1376 8.90876C26.0761 9.06007 26.004 9.37632 25.9773 9.61157C25.9358 9.97788 25.8987 10.0707 25.7192 10.2584C25.4299 10.5607 24.9261 10.896 24.2539 11.2335C23.314 11.7054 23.1062 11.9457 22.9401 12.7529C22.8084 13.3932 22.4587 14.0913 22.2708 14.0893C22.2302 14.0889 22.132 13.9883 22.0526 13.8658C21.8654 13.5769 21.5416 13.4401 21.1534 13.4861C20.991 13.5054 20.5504 13.6641 20.1743 13.8388C19.5341 14.1363 18.8392 14.3469 18.7598 14.2676C18.7406 14.2483 18.8243 14.0848 18.9459 13.9041C19.2416 13.4647 19.2752 13.3044 19.1286 13.035C18.9126 12.6382 18.7487 12.6253 17.8301 12.9323C17.0787 13.1834 17.0054 13.2227 16.6731 13.5515C16.4779 13.7446 16.2826 13.9026 16.2389 13.9026C16.079 13.9026 15.8131 14.085 15.7404 14.2446C15.6993 14.3347 15.6657 14.6131 15.6657 14.8634C15.6657 15.2726 15.6494 15.3335 15.5034 15.4698C15.3022 15.6576 15.1032 16.0365 15.1032 16.2319C15.1032 16.6104 14.7134 16.7272 14.6777 16.3594C14.6627 16.2058 14.7067 16.1071 14.8726 15.9224C15.1812 15.5785 15.3532 15.2037 15.3532 14.8751C15.3532 14.5368 15.1944 14.1098 15.0372 14.0258C14.7507 13.8724 14.3934 14.0224 14.1426 14.4015C13.6341 15.1698 13.2624 15.3981 12.4846 15.4199C11.9998 15.4334 11.9794 15.428 11.7786 15.2343C11.264 14.7373 10.5946 14.6651 8.95212 14.9291C7.22512 15.2068 7.31043 15.2155 7.38575 14.7697C7.42356 14.546 7.44425 14.5214 7.56275 14.5594C7.63656 14.5831 7.86568 14.6162 8.07193 14.633C8.39268 14.6591 8.47856 14.6422 8.66568 14.5162C8.786 14.4351 8.93531 14.2709 8.9975 14.1513C9.37275 13.4293 8.51725 12.2151 7.63331 12.2151C7.24237 12.2151 7.00837 12.4003 6.25825 13.3032C5.83575 13.8118 5.36081 14.1048 4.69468 14.2675C4.39731 14.3402 4.02887 14.4621 3.87593 14.5385C3.52343 14.7146 3.03893 15.2243 2.82743 15.6417C2.42587 16.4342 2.30675 17.7391 2.52012 19.008C2.5975 19.4681 2.61081 19.7108 2.56831 19.883C2.50975 20.1201 2.50756 20.1215 2.12418 20.1638C1.69962 20.2106 1.455 20.3149 1.248 20.5373C0.902935 20.9078 0.91556 21.2994 1.30093 22.1771C2.15493 24.1224 2.87093 25.1526 3.369 25.1526C3.77781 25.1526 3.93562 24.9383 4.31281 23.8713C4.49512 23.3557 4.70181 22.8073 4.77212 22.6526C5.12093 21.8855 5.61187 21.5216 6.11806 21.6551C6.57212 21.7748 6.87581 21.9981 7.25168 22.4888C7.69643 23.0695 8.1065 23.3636 8.40562 23.3165C8.69375 23.2711 8.785 23.1802 8.98568 22.7388C9.11968 22.444 9.23218 22.304 9.47531 22.1294C9.64893 22.0046 9.81806 21.9026 9.85118 21.9026C9.88425 21.9026 10.0425 21.9858 10.2027 22.0874C10.363 22.189 10.6523 22.3041 10.8456 22.3432C11.3759 22.4504 11.4616 22.4999 11.6059 22.7829C11.8342 23.2304 12.0005 23.3401 12.4505 23.3401C12.899 23.3401 12.9144 23.3531 13.4149 24.1529C13.9239 24.9665 14.574 25.2891 15.6969 25.2852C16.4238 25.2826 17.1299 25.1241 17.6369 24.8494C17.9082 24.7025 18.0229 24.6751 18.2701 24.6982C18.5152 24.7211 18.6484 24.6901 18.9782 24.5333C19.2016 24.4271 19.4309 24.3401 19.4876 24.3401C19.5444 24.3401 19.7412 24.4101 19.9251 24.4957C20.3444 24.6909 20.7432 24.6973 21.2762 24.5173C21.6396 24.3945 21.7192 24.3885 22.1321 24.4527C22.6812 24.5381 22.8519 24.4973 23.3571 24.1599C23.5799 24.0111 23.8424 23.8931 24.0047 23.8688C24.3313 23.8198 24.6203 23.6549 24.7639 23.4357C24.8271 23.3393 24.8979 23.0203 24.9413 22.6358C24.9811 22.2841 25.0354 21.9612 25.0621 21.9182C25.0907 21.8721 25.2426 21.8401 25.4331 21.8401C25.7372 21.8401 25.7739 21.8583 26.0801 22.1606L26.4046 22.4811L26.9716 22.5334C27.5668 22.5884 27.8689 22.6983 27.9763 22.8991C28.0117 22.9653 28.0407 23.2471 28.0407 23.5254C28.0407 24.0832 28.1259 24.3544 28.3725 24.5817C28.7171 24.8993 29.3457 24.7813 29.5611 24.3584C29.7857 23.9178 29.9402 23.0139 29.9436 22.1213C29.9468 21.2799 29.9389 21.2247 29.7387 20.6838C29.6241 20.3744 29.4327 19.8191 29.3132 19.4498C29.1698 19.0061 29.0556 18.7565 28.9766 18.7142C28.9108 18.679 28.6256 18.6578 28.3427 18.667C27.8506 18.6831 27.8249 18.6771 27.7437 18.5276C27.6822 18.4141 27.6681 18.2173 27.6921 17.8088C27.7557 16.7281 27.7836 16.5857 28.0399 16.0292C28.2166 15.6458 28.3099 15.3379 28.3533 14.9952C28.3874 14.7268 28.4268 14.4956 28.4411 14.4814C28.4553 14.4671 28.5861 14.6616 28.7317 14.9134C29.2141 15.7474 29.4328 16.0549 29.8186 16.4414C30.4856 17.1095 31.125 17.3239 31.4579 16.991C31.6059 16.8431 31.6168 16.7967 31.5881 16.4393C31.5658 16.1611 31.4848 15.8954 31.3057 15.5132C31.0249 14.9141 30.6674 14.4875 30.1905 14.1824C29.5677 13.784 29.4122 13.0068 29.6333 11.3964C29.8358 9.92113 29.6218 9.34863 28.7126 8.93276L28.3532 8.76838V8.26988C28.3532 7.61901 28.1646 7.26657 27.7282 7.10194C27.4779 7.00757 26.8392 6.96676 26.624 7.03144Z"/>
</mask>
<path fill-rule="evenodd" clip-rule="evenodd" d="M26.624 7.03144C26.5151 7.06419 26.3534 7.17732 26.2646 7.28282C26.0817 7.50013 26.0617 7.72576 26.1762 8.28001C26.2396 8.58663 26.2344 8.67032 26.1376 8.90876C26.0761 9.06007 26.004 9.37632 25.9773 9.61157C25.9358 9.97788 25.8987 10.0707 25.7192 10.2584C25.4299 10.5607 24.9261 10.896 24.2539 11.2335C23.314 11.7054 23.1062 11.9457 22.9401 12.7529C22.8084 13.3932 22.4587 14.0913 22.2708 14.0893C22.2302 14.0889 22.132 13.9883 22.0526 13.8658C21.8654 13.5769 21.5416 13.4401 21.1534 13.4861C20.991 13.5054 20.5504 13.6641 20.1743 13.8388C19.5341 14.1363 18.8392 14.3469 18.7598 14.2676C18.7406 14.2483 18.8243 14.0848 18.9459 13.9041C19.2416 13.4647 19.2752 13.3044 19.1286 13.035C18.9126 12.6382 18.7487 12.6253 17.8301 12.9323C17.0787 13.1834 17.0054 13.2227 16.6731 13.5515C16.4779 13.7446 16.2826 13.9026 16.2389 13.9026C16.079 13.9026 15.8131 14.085 15.7404 14.2446C15.6993 14.3347 15.6657 14.6131 15.6657 14.8634C15.6657 15.2726 15.6494 15.3335 15.5034 15.4698C15.3022 15.6576 15.1032 16.0365 15.1032 16.2319C15.1032 16.6104 14.7134 16.7272 14.6777 16.3594C14.6627 16.2058 14.7067 16.1071 14.8726 15.9224C15.1812 15.5785 15.3532 15.2037 15.3532 14.8751C15.3532 14.5368 15.1944 14.1098 15.0372 14.0258C14.7507 13.8724 14.3934 14.0224 14.1426 14.4015C13.6341 15.1698 13.2624 15.3981 12.4846 15.4199C11.9998 15.4334 11.9794 15.428 11.7786 15.2343C11.264 14.7373 10.5946 14.6651 8.95212 14.9291C7.22512 15.2068 7.31043 15.2155 7.38575 14.7697C7.42356 14.546 7.44425 14.5214 7.56275 14.5594C7.63656 14.5831 7.86568 14.6162 8.07193 14.633C8.39268 14.6591 8.47856 14.6422 8.66568 14.5162C8.786 14.4351 8.93531 14.2709 8.9975 14.1513C9.37275 13.4293 8.51725 12.2151 7.63331 12.2151C7.24237 12.2151 7.00837 12.4003 6.25825 13.3032C5.83575 13.8118 5.36081 14.1048 4.69468 14.2675C4.39731 14.3402 4.02887 14.4621 3.87593 14.5385C3.52343 14.7146 3.03893 15.2243 2.82743 15.6417C2.42587 16.4342 2.30675 17.7391 2.52012 19.008C2.5975 19.4681 2.61081 19.7108 2.56831 19.883C2.50975 20.1201 2.50756 20.1215 2.12418 20.1638C1.69962 20.2106 1.455 20.3149 1.248 20.5373C0.902935 20.9078 0.91556 21.2994 1.30093 22.1771C2.15493 24.1224 2.87093 25.1526 3.369 25.1526C3.77781 25.1526 3.93562 24.9383 4.31281 23.8713C4.49512 23.3557 4.70181 22.8073 4.77212 22.6526C5.12093 21.8855 5.61187 21.5216 6.11806 21.6551C6.57212 21.7748 6.87581 21.9981 7.25168 22.4888C7.69643 23.0695 8.1065 23.3636 8.40562 23.3165C8.69375 23.2711 8.785 23.1802 8.98568 22.7388C9.11968 22.444 9.23218 22.304 9.47531 22.1294C9.64893 22.0046 9.81806 21.9026 9.85118 21.9026C9.88425 21.9026 10.0425 21.9858 10.2027 22.0874C10.363 22.189 10.6523 22.3041 10.8456 22.3432C11.3759 22.4504 11.4616 22.4999 11.6059 22.7829C11.8342 23.2304 12.0005 23.3401 12.4505 23.3401C12.899 23.3401 12.9144 23.3531 13.4149 24.1529C13.9239 24.9665 14.574 25.2891 15.6969 25.2852C16.4238 25.2826 17.1299 25.1241 17.6369 24.8494C17.9082 24.7025 18.0229 24.6751 18.2701 24.6982C18.5152 24.7211 18.6484 24.6901 18.9782 24.5333C19.2016 24.4271 19.4309 24.3401 19.4876 24.3401C19.5444 24.3401 19.7412 24.4101 19.9251 24.4957C20.3444 24.6909 20.7432 24.6973 21.2762 24.5173C21.6396 24.3945 21.7192 24.3885 22.1321 24.4527C22.6812 24.5381 22.8519 24.4973 23.3571 24.1599C23.5799 24.0111 23.8424 23.8931 24.0047 23.8688C24.3313 23.8198 24.6203 23.6549 24.7639 23.4357C24.8271 23.3393 24.8979 23.0203 24.9413 22.6358C24.9811 22.2841 25.0354 21.9612 25.0621 21.9182C25.0907 21.8721 25.2426 21.8401 25.4331 21.8401C25.7372 21.8401 25.7739 21.8583 26.0801 22.1606L26.4046 22.4811L26.9716 22.5334C27.5668 22.5884 27.8689 22.6983 27.9763 22.8991C28.0117 22.9653 28.0407 23.2471 28.0407 23.5254C28.0407 24.0832 28.1259 24.3544 28.3725 24.5817C28.7171 24.8993 29.3457 24.7813 29.5611 24.3584C29.7857 23.9178 29.9402 23.0139 29.9436 22.1213C29.9468 21.2799 29.9389 21.2247 29.7387 20.6838C29.6241 20.3744 29.4327 19.8191 29.3132 19.4498C29.1698 19.0061 29.0556 18.7565 28.9766 18.7142C28.9108 18.679 28.6256 18.6578 28.3427 18.667C27.8506 18.6831 27.8249 18.6771 27.7437 18.5276C27.6822 18.4141 27.6681 18.2173 27.6921 17.8088C27.7557 16.7281 27.7836 16.5857 28.0399 16.0292C28.2166 15.6458 28.3099 15.3379 28.3533 14.9952C28.3874 14.7268 28.4268 14.4956 28.4411 14.4814C28.4553 14.4671 28.5861 14.6616 28.7317 14.9134C29.2141 15.7474 29.4328 16.0549 29.8186 16.4414C30.4856 17.1095 31.125 17.3239 31.4579 16.991C31.6059 16.8431 31.6168 16.7967 31.5881 16.4393C31.5658 16.1611 31.4848 15.8954 31.3057 15.5132C31.0249 14.9141 30.6674 14.4875 30.1905 14.1824C29.5677 13.784 29.4122 13.0068 29.6333 11.3964C29.8358 9.92113 29.6218 9.34863 28.7126 8.93276L28.3532 8.76838V8.26988C28.3532 7.61901 28.1646 7.26657 27.7282 7.10194C27.4779 7.00757 26.8392 6.96676 26.624 7.03144Z" fill="#FFECB3" stroke="#FFECB3" stroke-width="2" mask="url(#path-1-inside-1_353_9786)"/>
</svg>
